<?xml version="1.0" encoding="UTF-8"?>
<svg width="46px" height="46px" viewBox="0 0 46 46" version="1.1" xmlns="http://www.w3.org/2000/svg" xmlns:xlink="http://www.w3.org/1999/xlink">
    <title>Shape</title>
    <g id="Symbols" stroke="none" stroke-width="1" fill="none" fill-rule="evenodd">
        <g id="Icon/Add" fill="#CDCDCE" fill-rule="nonzero">
            <path d="M23,0 C10.3172913,0 0,10.3172913 0,23 C0,35.6827087 10.3172913,46 23,46 C35.6827087,46 46,35.6827087 46,23 C46,10.3172913 35.6827087,0 23,0 Z M33.0625,24.9165497 L24.9165497,24.9165497 L24.9165497,33.0625 C24.9165497,34.1206207 24.0581208,34.9790497 23,34.9790497 C21.9418792,34.9790497 21.0834503,34.1206207 21.0834503,33.0625 L21.0834503,24.9165497 L12.9375,24.9165497 C11.8793792,24.9165497 11.0209503,24.0581208 11.0209503,23 C11.0209503,21.9418792 11.8793792,21.0834503 12.9375,21.0834503 L21.0834503,21.0834503 L21.0834503,12.9375 C21.0834503,11.8793792 21.9418792,11.0209503 23,11.0209503 C24.0581207,11.0209503 24.9165497,11.8793792 24.9165497,12.9375 L24.9165497,21.0834503 L33.0625,21.0834503 C34.1206207,21.0834503 34.9790497,21.9418792 34.9790497,23 C34.9790497,24.0581207 34.1206207,24.9165497 33.0625,24.9165497 L33.0625,24.9165497 Z" id="Shape"></path>
        </g>
    </g>
</svg>