<?xml version="1.0" encoding="UTF-8"?>
<svg width="14px" height="14px" viewBox="0 0 14 14" version="1.1" xmlns="http://www.w3.org/2000/svg" xmlns:xlink="http://www.w3.org/1999/xlink">
    <title>Icon/ArrowDown</title>
    <g id="Icon/ArrowDown" stroke="none" stroke-width="1" fill="none" fill-rule="evenodd">
        <path d="M12.8081936,4.58505162 L12.4151172,4.19415003 C12.2914089,4.07207158 12.1268222,4.00481762 11.9509183,4.00481762 C11.775112,4.00481762 11.6103302,4.07207158 11.4866218,4.19415003 L7.00268295,8.62269787 L2.51357328,4.18923606 C2.39006008,4.0671576 2.22527825,4 2.04947195,4 C1.87366564,4 1.70878625,4.0671576 1.58517549,4.18923606 L1.19200156,4.57772884 C0.93599948,4.83036476 0.93599948,5.24188575 1.19200156,5.49452168 L6.5368255,10.7920716 C6.6603387,10.9140537 6.82492541,11 7.0022927,11 L7.0043415,11 C7.18024537,11 7.34483207,10.9139573 7.46834527,10.7920716 L12.8081936,5.50887818 C12.9319019,5.38689608 12.9998049,5.21943565 13,5.04580867 C13,4.87208534 12.9319019,4.70693737 12.8081936,4.58505162 Z" id="DownArrow" fill="#36393A" fill-rule="nonzero"></path>
    </g>
</svg>