<?xml version="1.0" encoding="UTF-8"?>
<svg width="8px" height="13px" viewBox="0 0 8 13" version="1.1" xmlns="http://www.w3.org/2000/svg" xmlns:xlink="http://www.w3.org/1999/xlink">
    <title>DownArrow</title>
    <g id="Symbols" stroke="none" stroke-width="1" fill="none" fill-rule="evenodd">
        <g id="Icon/ArrowRight" transform="translate(-4.000000, -1.000000)" fill="#36393A" fill-rule="nonzero">
            <path d="M13.8081936,4.58505162 L13.4151172,4.19415003 C13.2914089,4.07207158 13.1268222,4.00481762 12.9509183,4.00481762 C12.775112,4.00481762 12.6103302,4.07207158 12.4866218,4.19415003 L8.00268295,8.62269787 L3.51357328,4.18923606 C3.39006008,4.0671576 3.22527825,4 3.04947195,4 C2.87366564,4 2.70878625,4.0671576 2.58517549,4.18923606 L2.19200156,4.57772884 C1.93599948,4.83036476 1.93599948,5.24188575 2.19200156,5.49452168 L7.5368255,10.7920716 C7.6603387,10.9140537 7.82492541,11 8.0022927,11 L8.0043415,11 C8.18024537,11 8.34483207,10.9139573 8.46834527,10.7920716 L13.8081936,5.50887818 C13.9319019,5.38689608 13.9998049,5.21943565 14,5.04580867 C14,4.87208534 13.9319019,4.70693737 13.8081936,4.58505162 Z" id="DownArrow" transform="translate(8.000000, 7.500000) rotate(-90.000000) translate(-8.000000, -7.500000) "></path>
        </g>
    </g>
</svg>