<?xml version="1.0" encoding="UTF-8"?>
<svg width="29px" height="37px" viewBox="0 0 29 37" version="1.1" xmlns="http://www.w3.org/2000/svg" xmlns:xlink="http://www.w3.org/1999/xlink">
    <title>Icon/FileActive</title>
    <g id="Desktop" stroke="none" stroke-width="1" fill="none" fill-rule="evenodd">
        <g id="restaurant_Case_Edit" transform="translate(-746.000000, -4419.000000)" fill="#FB5373" fill-rule="nonzero">
            <g id="STL-Files" transform="translate(339.000000, 4375.000000)">
                <g id="Icon/FileActive" transform="translate(407.000000, 44.000000)">
                    <g id="876755">
                        <path d="M28.612424,6.99301061 L22.0215465,0.385820741 C21.8988167,0.262478891 21.752684,0.164997792 21.591799,0.0991070737 C21.4327677,0.0339906292 21.2626915,0 21.0909161,0 L3.95454194,0 C1.77050713,0 0,1.77486832 0,3.96428295 L0,33.0357171 C0,35.2251317 1.77050713,37 3.95454194,37 L25.0454581,37 C27.2294929,37 29,35.2251317 29,33.0357171 L29,7.9285659 C28.9981463,7.57781977 28.858965,7.24186228 28.612424,6.99301061 Z M22.4090453,4.51138497 L24.4997004,6.60718987 L22.4090453,6.60718987 L22.4090453,4.51138497 Z M26.3636644,33.0357171 C26.3636644,33.7655477 25.7734182,34.3571705 25.0453808,34.3571705 L3.95454194,34.3571705 C3.22650459,34.3571705 2.63633555,33.7655477 2.63633555,33.0357171 L2.63633555,3.96428295 C2.63633555,3.23445226 3.22650459,2.64282949 3.95454194,2.64282949 L19.7727097,2.64282949 L19.7727097,7.9285659 C19.7727097,8.65839658 20.3628788,9.25001936 21.0909161,9.25001936 L26.3636644,9.25001936 L26.3636644,33.0357171 L26.3636644,33.0357171 Z" id="Shape"></path>
                    </g>
                    <g id="Check" transform="translate(8.000000, 15.000000)">
                        <path d="M5.88457583,9.54390702 C5.29517954,10.152031 4.33883285,10.152031 3.74972101,9.54390702 L0.44204722,6.13113407 C-0.147349073,5.52330359 -0.147349073,4.53656962 0.44204722,3.92873914 C1.03115906,3.32061517 1.98750574,3.32061517 2.57690204,3.92873914 L4.54762478,5.9617868 C4.69639614,6.11499178 4.9379007,6.11499178 5.08695652,5.9617868 L10.423098,0.45609298 C11.0122098,-0.152030993 11.9685565,-0.152030993 12.5579528,0.45609298 C12.8409882,0.748121625 13,1.14434139 13,1.55729044 C13,1.97023949 12.8409882,2.36645926 12.5579528,2.65848791 L5.88457583,9.54390702 Z" id="Path"></path>
                    </g>
                </g>
            </g>
        </g>
    </g>
</svg>