<?xml version="1.0" encoding="UTF-8"?>
<svg width="29px" height="37px" viewBox="0 0 29 37" version="1.1" xmlns="http://www.w3.org/2000/svg" xmlns:xlink="http://www.w3.org/1999/xlink">
    <title>Icon/File</title>
    <g id="Desktop" stroke="none" stroke-width="1" fill="none" fill-rule="evenodd">
        <g id="restaurant_Case_Create" transform="translate(-747.000000, -4413.000000)" fill="#D1D1D1" fill-rule="nonzero">
            <g id="Icon/File" transform="translate(747.000000, 4413.000000)">
                <path d="M28.612424,6.99301061 L22.0215465,0.385820741 C21.8988167,0.262478891 21.752684,0.164997792 21.591799,0.0991070737 C21.4327677,0.0339906292 21.2626915,0 21.0909161,0 L3.95454194,0 C1.77050713,0 0,1.77486832 0,3.96428295 L0,33.0357171 C0,35.2251317 1.77050713,37 3.95454194,37 L25.0454581,37 C27.2294929,37 29,35.2251317 29,33.0357171 L29,7.9285659 C28.9981463,7.57781977 28.858965,7.24186228 28.612424,6.99301061 Z M22.4090453,4.51138497 L24.4997004,6.60718987 L22.4090453,6.60718987 L22.4090453,4.51138497 Z M26.3636644,33.0357171 C26.3636644,33.7655477 25.7734182,34.3571705 25.0453808,34.3571705 L3.95454194,34.3571705 C3.22650459,34.3571705 2.63633555,33.7655477 2.63633555,33.0357171 L2.63633555,3.96428295 C2.63633555,3.23445226 3.22650459,2.64282949 3.95454194,2.64282949 L19.7727097,2.64282949 L19.7727097,7.9285659 C19.7727097,8.65839658 20.3628788,9.25001936 21.0909161,9.25001936 L26.3636644,9.25001936 L26.3636644,33.0357171 L26.3636644,33.0357171 Z" id="Shape"></path>
            </g>
        </g>
    </g>
</svg>