<?xml version="1.0" encoding="UTF-8"?>
<svg width="22px" height="21px" viewBox="0 0 22 21" version="1.1" xmlns="http://www.w3.org/2000/svg" xmlns:xlink="http://www.w3.org/1999/xlink">
    <title>Icon_HeartActive</title>
    <g id="Symbols" stroke="none" stroke-width="1" fill="none" fill-rule="evenodd">
        <g id="Result/Submission_Saved" transform="translate(-791.000000, -13.000000)" fill="#FB5373" fill-rule="nonzero">
            <path d="M806.797828,13 C808.468419,13.0026712 810.062949,13.6891911 811.200879,14.8957591 C813.599699,17.4480532 813.599699,21.3927019 811.200925,23.9449961 L811.200925,23.9449961 L802.572469,32.9244267 L802.572469,32.9244267 L802.542339,32.9541489 C802.227082,33.2487353 801.729434,33.2354194 801.430808,32.9244267 L801.430808,32.9244267 L792.799219,23.9449961 C790.40026,21.3924292 790.40026,17.4475533 792.799219,14.8949865 C792.899467,14.78855 793.003632,14.6858401 793.111482,14.5869478 C795.545361,12.3560991 799.351759,12.4939848 801.613199,14.8949865 L801.613199,14.8949865 L802.001615,15.2998723 L802.390032,14.8949865 C803.529712,13.6881913 805.1259,13.002035 806.797828,13 Z" id="Icon_HeartActive"></path>
        </g>
    </g>
</svg>