<?xml version="1.0" encoding="UTF-8"?>
<svg width="22px" height="21px" viewBox="0 0 22 21" version="1.1" xmlns="http://www.w3.org/2000/svg" xmlns:xlink="http://www.w3.org/1999/xlink">
    <title>Icon_Heart</title>
    <g id="Symbols" stroke="none" stroke-width="1" fill="none" fill-rule="evenodd">
        <g id="Result/Submission/Public" transform="translate(-791.000000, -13.000000)" fill="#CDCDCE" fill-rule="nonzero">
            <path d="M811.200879,14.8957591 C810.062949,13.6891911 808.468419,13.0026712 806.797828,13 C805.1259,13.002035 803.529712,13.6881913 802.390032,14.8949865 L802.001615,15.2998723 L801.613199,14.8949865 C799.351759,12.4939848 795.545361,12.3560991 793.111482,14.5869478 C793.003632,14.6858401 792.899467,14.78855 792.799219,14.8949865 C790.40026,17.4475533 790.40026,21.3924292 792.799219,23.9449961 L801.430808,32.9244267 C801.729434,33.2354194 802.227082,33.2487353 802.542339,32.9541489 C802.552659,32.9445142 802.562702,32.9346068 802.572469,32.9244267 L811.200925,23.9449961 C813.599699,21.3927019 813.599699,17.4480532 811.200879,14.8957591 Z M810.06318,22.87695 L810.062396,22.87695 L802.001615,31.2637994 L793.940097,22.87695 C792.107431,20.9265538 792.107431,17.9126562 793.940097,15.9622599 C795.604377,14.1828346 798.415893,14.0712626 800.219719,15.7130294 C800.307298,15.7927432 800.39156,15.8758655 800.472367,15.9622599 L801.430808,16.959727 C801.746664,17.2693108 802.256613,17.2693108 802.572469,16.959727 L803.53091,15.9630325 C805.19519,14.1836072 808.006706,14.0720352 809.810532,15.713802 C809.898111,15.7935158 809.982373,15.876638 810.06318,15.9630325 C811.911786,17.9165191 811.92533,20.9359158 810.06318,22.87695 Z" id="Icon_Heart"></path>
        </g>
    </g>
</svg>