<?xml version="1.0" encoding="UTF-8"?>
<svg width="37px" height="37px" viewBox="0 0 37 37" version="1.1" xmlns="http://www.w3.org/2000/svg" xmlns:xlink="http://www.w3.org/1999/xlink">
    <title>Icon/Instagram</title>
    <g id="Symbols" stroke="none" stroke-width="1" fill="none" fill-rule="evenodd" opacity="0.8">
        <g id="Footer" transform="translate(-1186.000000, -169.000000)" fill="#FFFFFF" fill-rule="nonzero">
            <g id="Icon/Instagram" transform="translate(1186.000000, 169.000000)">
                <path d="M18.4528061,0 C28.6440408,0 36.9056122,8.26157143 36.9056122,18.4528061 C36.9056122,28.6440408 28.6440408,36.9056122 18.4528061,36.9056122 C8.26157143,36.9056122 0,28.6440408 0,18.4528061 C0,8.26157143 8.26157143,0 18.4528061,0 Z M26.8658948,7.13231633 L10.0283909,7.13231633 C8.428578,7.13231633 7.12061224,8.31605836 7.12061224,10.0397805 L7.12061224,10.0397805 L7.12061224,26.8782279 C7.12061224,28.601321 8.428578,29.7853776 10.0283909,29.7853776 L10.0283909,29.7853776 L26.8658948,29.7853776 C28.4650787,29.7853776 29.7736735,28.601321 29.7736735,26.8782279 L29.7736735,26.8782279 L29.7736735,10.0397805 C29.7736735,8.31605836 28.4653932,7.13231633 26.8658948,7.13231633 L26.8658948,7.13231633 Z M11.8723032,16.9897959 C11.6858482,17.5896699 11.5851626,18.2247586 11.5851626,18.8822009 C11.5851626,22.5509557 14.7002034,25.5246038 18.5427293,25.5246038 C22.3852552,25.5246038 25.500296,22.5509557 25.500296,18.8822009 C25.500296,18.3343323 25.4301596,17.8019871 25.2990584,17.2926079 L25.2131553,16.9897959 L27.1836735,16.9897959 L27.1836735,26.3069816 C27.1836735,26.7524529 26.8423616,27.1225194 26.4046465,27.1768167 L26.2933511,27.1836735 L10.7060274,27.1836735 C10.2542327,27.1836735 9.87843221,26.847874 9.82329009,26.4166394 L9.81632653,26.3069816 L9.81632653,16.9897959 L11.8723032,16.9897959 Z M18.5,13.9693878 C21.0021881,13.9693878 23.0306122,15.9132943 23.0306122,18.3112245 C23.0306122,20.7091547 21.0021881,22.6530612 18.5,22.6530612 C15.9978119,22.6530612 13.9693878,20.7091547 13.9693878,18.3112245 C13.9693878,15.9132943 15.9978119,13.9693878 18.5,13.9693878 Z M26.1794177,9.81632653 C26.6951959,9.81632653 27.1230065,10.2202179 27.1777555,10.735581 L27.1836735,10.8476156 L27.1836735,13.3159677 C27.1836735,13.8454666 26.7902481,14.2846579 26.2884913,14.3408634 L26.1794177,14.3469388 L23.6576269,14.3469388 C23.1415596,14.3469388 22.7134599,13.9427704 22.6589253,13.4278874 L22.6530612,13.3159677 L22.6530612,10.8476156 C22.6530612,10.3178199 23.0464868,9.8786088 23.5484954,9.82240197 L23.6576269,9.81632653 L26.1794177,9.81632653 Z" id="Icon_Instagram"></path>
            </g>
        </g>
    </g>
</svg>