<?xml version="1.0" encoding="UTF-8"?>
<svg width="17px" height="17px" viewBox="0 0 17 17" version="1.1" xmlns="http://www.w3.org/2000/svg" xmlns:xlink="http://www.w3.org/1999/xlink">
    <title>Icon/Search</title>
    <g id="Symbols" stroke="none" stroke-width="1" fill="none" fill-rule="evenodd">
        <g id="Nav/contributorAuth" transform="translate(-1094.000000, -93.000000)" fill="#424242" fill-rule="nonzero">
            <g id="Search" transform="translate(904.000000, 93.000000)">
                <path d="M206.425532,13.3965087 L203.617021,10.5985037 C204.12766,9.58104738 204.468085,8.39401496 204.468085,7.20698254 C204.468085,3.22194514 201.234043,0 197.234043,0 C193.234043,0 190,3.22194514 190,7.20698254 C190,11.19202 193.234043,14.4139651 197.234043,14.4139651 C198.425532,14.4139651 199.617021,14.074813 200.638298,13.5660848 L203.446809,16.3640898 C204.297872,17.2119701 205.574468,17.2119701 206.425532,16.3640898 C207.191489,15.5162095 207.191489,14.244389 206.425532,13.3965087 Z M197.234043,12.7182045 C194.170213,12.7182045 191.702128,10.2593516 191.702128,7.20698254 C191.702128,4.15461347 194.170213,1.6957606 197.234043,1.6957606 C200.297872,1.6957606 202.765957,4.15461347 202.765957,7.20698254 C202.765957,10.2593516 200.297872,12.7182045 197.234043,12.7182045 Z" id="Icon/Search"></path>
            </g>
        </g>
    </g>
</svg>