<?xml version="1.0" encoding="UTF-8"?>
<svg width="20px" height="22px" viewBox="0 0 20 22" version="1.1" xmlns="http://www.w3.org/2000/svg" xmlns:xlink="http://www.w3.org/1999/xlink">
    <title>Icon/Share</title>
    <g id="Desktop" stroke="none" stroke-width="1" fill="none" fill-rule="evenodd">
        <g id="restaurant_CaseDetail" transform="translate(-1249.000000, -203.000000)" fill="#13C9B1" fill-rule="nonzero">
            <g id="Icon/Share" transform="translate(1248.545455, 203.000000)">
                <path d="M16.7045455,14.265625 C15.4697121,14.265625 14.3725038,14.8844609 13.6887955,15.8370352 L7.80254545,12.7349063 C7.90129545,12.3889219 7.95454545,12.023043 7.95454545,11.6445312 C7.95454545,11.1318711 7.85708712,10.6423281 7.68062879,10.194207 L13.8497955,6.37179297 C14.5381288,7.20495703 15.5624621,7.734375 16.7045455,7.734375 C18.7722955,7.734375 20.4545455,5.99955469 20.4545455,3.8671875 C20.4545455,1.73482031 18.7722955,0 16.7045455,0 C14.6367955,0 12.9545455,1.73482031 12.9545455,3.8671875 C12.9545455,4.36003906 13.0445871,4.83153516 13.2082955,5.26539062 L7.02371212,9.09734375 C6.33587879,8.28875781 5.32708712,7.77734375 4.20454545,7.77734375 C2.13679545,7.77734375 0.454545455,9.51216406 0.454545455,11.6445312 C0.454545455,13.7768984 2.13679545,15.5117188 4.20454545,15.5117188 C5.45962879,15.5117188 6.57254545,14.8725156 7.25358712,13.8932578 L13.1227538,16.9863633 C13.0134621,17.3487617 12.9545455,17.7338047 12.9545455,18.1328125 C12.9545455,20.2651797 14.6367955,22 16.7045455,22 C18.7722955,22 20.4545455,20.2651797 20.4545455,18.1328125 C20.4545455,16.0004453 18.7722955,14.265625 16.7045455,14.265625 Z M16.7045455,1.2890625 C18.0830455,1.2890625 19.2045455,2.44560938 19.2045455,3.8671875 C19.2045455,5.28876562 18.0830455,6.4453125 16.7045455,6.4453125 C15.3260455,6.4453125 14.2045455,5.28876562 14.2045455,3.8671875 C14.2045455,2.44560938 15.3260455,1.2890625 16.7045455,1.2890625 Z M4.20454545,14.2226562 C2.82604545,14.2226562 1.70454545,13.0661094 1.70454545,11.6445312 C1.70454545,10.2229531 2.82604545,9.06640625 4.20454545,9.06640625 C5.58304545,9.06640625 6.70454545,10.2229531 6.70454545,11.6445312 C6.70454545,13.0661094 5.58304545,14.2226562 4.20454545,14.2226562 Z M16.7045455,20.7109375 C15.3260455,20.7109375 14.2045455,19.5543906 14.2045455,18.1328125 C14.2045455,16.7112344 15.3260455,15.5546875 16.7045455,15.5546875 C18.0830455,15.5546875 19.2045455,16.7112344 19.2045455,18.1328125 C19.2045455,19.5543906 18.0830455,20.7109375 16.7045455,20.7109375 Z" id="Shape"></path>
            </g>
        </g>
    </g>
</svg>