<?xml version="1.0" encoding="UTF-8"?>
<svg width="37px" height="37px" viewBox="0 0 37 37" version="1.1" xmlns="http://www.w3.org/2000/svg" xmlns:xlink="http://www.w3.org/1999/xlink">
    <title>Icon/Youtube</title>
    <g id="Symbols" stroke="none" stroke-width="1" fill="none" fill-rule="evenodd" opacity="0.8">
        <g id="Footer" transform="translate(-1284.000000, -169.000000)" fill="#FFFFFF" fill-rule="nonzero">
            <g id="Icon/Youtube" transform="translate(1284.000000, 169.000000)">
                <path d="M18.4528061,0 C28.6436633,0 36.9056122,8.26157143 36.9056122,18.4528061 C36.9056122,28.6440408 28.6436633,36.9056122 18.4528061,36.9056122 C8.26194898,36.9056122 0,28.6440408 0,18.4528061 C0,8.26157143 8.26194898,0 18.4528061,0 Z M19.5430145,9.37194691 L17.3714327,9.37194691 C14.4746955,9.37491345 11.5715612,9.41205329 8.69915306,9.73288776 C7.33506122,9.88541837 6.20240816,10.9078265 5.8837551,12.2934388 C5.42956122,14.2665204 5.42427551,16.4212041 5.42427551,18.4528061 L5.42461675,19.0096851 C5.42802918,20.8745432 5.46556586,22.8177764 5.87846939,24.6121735 C6.19712245,25.9977857 7.32977551,27.0198163 8.69386735,27.1719694 C11.9253265,27.5332857 15.1956735,27.5351735 18.452051,27.5332857 L19.5379282,27.5332873 C22.4345244,27.5303166 25.3369875,27.4931395 28.2087245,27.1719694 C29.5728163,27.0198163 30.7062245,25.9977857 31.0256327,24.6121735 C31.4798265,22.6387143 31.4809597,20.4844082 31.4809597,18.4528061 L31.4807064,17.8959187 C31.4778612,16.0310067 31.4434443,14.0874926 31.0305408,12.2934388 C30.7118878,10.907449 29.5784796,9.88541837 28.2136327,9.73288776 C24.9833061,9.37194898 21.7129592,9.37006122 18.4573367,9.37194898 Z M15.0903367,13.8802857 C17.8517449,15.321398 20.5957857,16.7523163 23.3741837,18.2021122 C20.6040918,19.6386939 17.8592959,21.0613061 15.0903367,22.4971327 L15.0903367,22.4971327 Z"></path>
            </g>
        </g>
    </g>
</svg>