<?xml version="1.0" encoding="UTF-8"?>
<svg width="8px" height="14px" viewBox="0 0 8 14" version="1.1" xmlns="http://www.w3.org/2000/svg" xmlns:xlink="http://www.w3.org/1999/xlink">
    <title>Path</title>
    <g id="Symbols" stroke="none" stroke-width="1" fill="none" fill-rule="evenodd">
        <g id="Icon/Arrow" fill="#13C9B1" fill-rule="nonzero">
            <path d="M7.78278856,6.45371989 L1.72295218,0.223656718 C1.58279556,0.0794465086 1.39569865,0 1.19620242,0 C0.996706193,0 0.809609285,0.0794465086 0.669452666,0.223656718 L0.223187791,0.682352176 C-0.0671998955,0.981244055 -0.0671998955,1.46702872 0.223187791,1.76546532 L5.31178087,6.99709758 L0.217541672,12.2345347 C0.0773850527,12.3787449 0,12.5709872 0,12.7759774 C0,12.9811953 0.0773850527,13.1734376 0.217541672,13.3177616 L0.663806546,13.7763433 C0.804073873,13.9205535 0.991060074,14 1.1905563,14 C1.39005253,14 1.57714944,13.9205535 1.71730606,13.7763433 L7.78278856,7.5405891 C7.9232773,7.39592361 8.00044094,7.20277071 8,6.99743905 C8.00044094,6.79131064 7.9232773,6.59827156 7.78278856,6.45371989 Z" id="Path"></path>
        </g>
    </g>
</svg>