<?xml version="1.0" encoding="UTF-8"?>
<svg width="16px" height="16px" viewBox="0 0 16 16" version="1.1" xmlns="http://www.w3.org/2000/svg" xmlns:xlink="http://www.w3.org/1999/xlink">
    <title>Icon/Clear</title>
    <g id="Desktop" stroke="none" stroke-width="1" fill="none" fill-rule="evenodd">
        <g id="restaurant_Case_Edit" transform="translate(-833.000000, -3985.000000)" fill="#36393A" fill-rule="nonzero">
            <g id="Treatment-Setup" transform="translate(345.000000, 3361.000000)">
                <g id="Icon/Clear" transform="translate(488.000000, 624.000000)">
                    <path d="M8,0 C3.58862306,0 0,3.58862306 0,8 C0,12.4113769 3.58862306,16 8,16 C12.4113769,16 16,12.4113769 16,8 C16,3.58862306 12.4113769,0 8,0 Z M10.003498,10.9462495 L8,8.94275149 L5.99650201,10.9462495 C5.73625701,11.2064945 5.31399552,11.2064945 5.05375052,10.9462495 C4.79350553,10.6860045 4.79350553,10.263743 5.05375052,10.003498 L7.05724851,8 L5.05375052,5.99650201 C4.79350553,5.73625701 4.79350553,5.31399552 5.05375052,5.05375052 C5.31399552,4.79350553 5.73625701,4.79350553 5.99650201,5.05375052 L8,7.05724851 L10.003498,5.05375052 C10.263743,4.79350553 10.6860045,4.79350553 10.9462495,5.05375052 C11.2064945,5.31399552 11.2064945,5.73625701 10.9462495,5.99650201 L8.94275149,8 L10.9462495,10.003498 C11.2064945,10.263743 11.2064945,10.6860045 10.9462495,10.9462495 C10.6860045,11.2064945 10.263743,11.2064945 10.003498,10.9462495 L10.003498,10.9462495 Z"></path>
                </g>
            </g>
        </g>
    </g>
</svg>