<?xml version="1.0" encoding="UTF-8"?>
<svg width="37px" height="37px" viewBox="0 0 37 37" version="1.1" xmlns="http://www.w3.org/2000/svg" xmlns:xlink="http://www.w3.org/1999/xlink">
    <title>Icon/Facebook</title>
    <g id="Symbols" stroke="none" stroke-width="1" fill="none" fill-rule="evenodd" opacity="0.8">
        <g id="Footer" transform="translate(-1137.000000, -169.000000)" fill="#FFFFFF" fill-rule="nonzero">
            <g id="Icon/Facebook" transform="translate(1137.000000, 169.000000)">
                <path d="M18.4528061,0 C8.26157143,0 0,8.26157143 0,18.4528061 C0,28.6440408 8.26157143,36.9056122 18.4528061,36.9056122 C28.6440408,36.9056122 36.9056122,28.6440408 36.9056122,18.4528061 C36.9056122,8.26157143 28.6440408,0 18.4528061,0 Z M23.4943086,11.543687 L21.3727418,11.5446175 C19.7090693,11.5446175 19.387382,12.3259913 19.387382,13.472461 L19.387382,16.0005261 L23.3546493,16.0005261 L23.3527662,19.9601274 L19.3876959,19.9601274 L19.3876959,30.121398 L15.249699,30.121398 L15.249699,19.9601274 L11.7905408,19.9601274 L11.7905408,16.0005261 L15.249699,16.0005261 L15.249699,13.0803783 C15.249699,9.69153035 17.3445894,7.84588776 20.4029723,7.84588776 L23.4946224,7.85054064 L23.4946224,11.543687 L23.4943086,11.543687 Z"></path>
            </g>
        </g>
    </g>
</svg>