<?xml version="1.0" encoding="UTF-8"?>
<svg width="37px" height="37px" viewBox="0 0 37 37" version="1.1" xmlns="http://www.w3.org/2000/svg" xmlns:xlink="http://www.w3.org/1999/xlink">
    <title>Icon/Twitter</title>
    <g id="Symbols" stroke="none" stroke-width="1" fill="none" fill-rule="evenodd" opacity="0.8">
        <g id="Footer" transform="translate(-1235.000000, -169.000000)" fill="#FFFFFF" fill-rule="nonzero">
            <g id="Icon/Twitter" transform="translate(1235.000000, 169.000000)">
                <path d="M18.4528061,0 C8.26157143,0 0,8.26157143 0,18.4528061 C0,28.6440408 8.26157143,36.9056122 18.4528061,36.9056122 C28.6440408,36.9056122 36.9056122,28.6440408 36.9056122,18.4528061 C36.9056122,8.26157143 28.6440408,0 18.4528061,0 Z M27.1723798,14.0811661 C27.1794112,14.2573494 27.1830798,14.433838 27.1830798,14.6112426 C27.1830798,20.9862066 22.3261592,27.580102 14.198376,27.580102 C11.7138166,27.580102 9.29468066,26.8720102 7.20266153,25.5318571 C7.15894405,25.5040708 7.14090676,25.450025 7.15833261,25.4014753 C7.17575846,25.353231 7.22497885,25.3233074 7.2754221,25.3291089 C7.62638483,25.370941 7.98529619,25.3917043 8.3414561,25.3917043 C10.2745026,25.3917043 12.1045225,24.7947576 13.652366,23.6622381 C11.7969716,23.5059022 10.2023534,22.2518559 9.62882898,20.4628477 C9.61690603,20.4255958 9.62546609,20.3849851 9.65114629,20.3556721 C9.67713221,20.3263591 9.71687538,20.3135347 9.75478424,20.3205576 C10.2689997,20.4179622 10.7917752,20.4243744 11.2955962,20.3425423 C9.38211563,19.748649 8.03726802,17.9584193 8.03726802,15.9202507 L8.03787946,15.861014 C8.03879661,15.8222354 8.05989106,15.7868155 8.09351989,15.7675789 C8.12684301,15.7480369 8.16842047,15.7477316 8.20204931,15.7666629 C8.7009789,16.0433042 9.2531032,16.2210142 9.81959618,16.2891058 C8.71993333,15.4136856 8.07425974,14.0866623 8.07425974,12.6671198 C8.07425974,11.8481882 8.29131857,11.0433025 8.70220177,10.3394854 C8.72054477,10.308035 8.75295073,10.2878824 8.7890253,10.2851343 C8.82540558,10.2814701 8.860563,10.297348 8.88349175,10.3254396 C11.1341778,13.0826925 14.4447836,14.780403 17.9849826,14.9987237 C17.9259792,14.7019297 17.896019,14.3959754 17.896019,14.087273 C17.896019,11.534295 19.9755038,9.45765306 22.5312951,9.45765306 C23.7877906,9.45765306 25.0020972,9.97337843 25.8724725,10.8747528 C26.8535173,10.6750581 27.7880931,10.3147526 28.651437,9.80360738 C28.6908744,9.78009592 28.7404005,9.78376004 28.7767808,9.812157 C28.8122439,9.8408593 28.8269183,9.8884929 28.8128554,9.93246238 C28.5202845,10.8463558 27.9498172,11.643608 27.1833856,12.2191807 C27.9051826,12.0936845 28.6055795,11.881776 29.2717361,11.5865088 C29.3163707,11.5660507 29.3692597,11.5788752 29.40136,11.6164324 C29.4331545,11.654295 29.4359059,11.7083409 29.4083914,11.7492569 C28.8015439,12.6564328 28.0494809,13.4408605 27.1723798,14.0811661 Z"></path>
            </g>
        </g>
    </g>
</svg>